<mxfile host="65bd71144e">
    <diagram id="U-RuamWwkuKYv-NbKlb2" name="Page-1">
        <mxGraphModel dx="2504" dy="2239" grid="1" gridSize="10" guides="1" tooltips="1" connect="1" arrows="1" fold="1" page="1" pageScale="1" pageWidth="850" pageHeight="1100" math="0" shadow="0">
            <root>
                <mxCell id="0"/>
                <mxCell id="1" parent="0"/>
                <mxCell id="2" value="ParticlaSwarmOptimization" style="rounded=1;whiteSpace=wrap;html=1;fontSize=28;fillColor=#dae8fc;strokeColor=#6c8ebf;gradientColor=#7ea6e0;" parent="1" vertex="1">
                    <mxGeometry x="-360" y="-80" width="360" height="60" as="geometry"/>
                </mxCell>
                <mxCell id="5" value="ISwarm" style="swimlane;whiteSpace=wrap;html=1;fillColor=#ffcd28;gradientColor=#ffa500;strokeColor=#d79b00;" parent="1" vertex="1">
                    <mxGeometry x="200" width="630" height="930" as="geometry"/>
                </mxCell>
                <mxCell id="8" value="评估, 分析, 记录" style="rounded=1;whiteSpace=wrap;html=1;" parent="5" vertex="1">
                    <mxGeometry x="150" y="30" width="120" height="50" as="geometry"/>
                </mxCell>
                <mxCell id="26" value="Best_Particle" style="rounded=1;whiteSpace=wrap;html=1;fontSize=32;" parent="5" vertex="1">
                    <mxGeometry x="310" y="30" width="200" height="40" as="geometry"/>
                </mxCell>
                <mxCell id="15" value="IGearbox" style="rounded=1;whiteSpace=wrap;html=1;" parent="5" vertex="1">
                    <mxGeometry x="235" y="160" width="100" height="40" as="geometry"/>
                </mxCell>
                <mxCell id="17" value="Vertical Container" style="swimlane;whiteSpace=wrap;html=1;" parent="5" vertex="1">
                    <mxGeometry x="335" y="160" width="260" height="200" as="geometry"/>
                </mxCell>
                <mxCell id="18" value="控制生成Particle 的下一步速度" style="rounded=1;whiteSpace=wrap;html=1;" parent="17" vertex="1">
                    <mxGeometry x="10" y="30" width="120" height="50" as="geometry"/>
                </mxCell>
                <mxCell id="33" value="更新当前状态" style="rounded=1;whiteSpace=wrap;html=1;fontSize=12;fillColor=#ffcd28;strokeColor=#d79b00;gradientColor=#ffa500;" parent="5" vertex="1">
                    <mxGeometry x="110" y="850" width="170" height="40" as="geometry"/>
                </mxCell>
                <mxCell id="60" style="edgeStyle=none;html=1;fontSize=32;entryX=0.5;entryY=1;entryDx=0;entryDy=0;" parent="1" source="31" target="57" edge="1">
                    <mxGeometry relative="1" as="geometry">
                        <mxPoint y="390" as="targetPoint"/>
                        <Array as="points">
                            <mxPoint x="-137" y="550"/>
                        </Array>
                    </mxGeometry>
                </mxCell>
                <mxCell id="38" style="edgeStyle=none;html=1;entryX=0.5;entryY=0;entryDx=0;entryDy=0;fontSize=12;" parent="1" source="32" target="33" edge="1">
                    <mxGeometry relative="1" as="geometry"/>
                </mxCell>
                <mxCell id="34" style="edgeStyle=none;html=1;entryX=0;entryY=0.5;entryDx=0;entryDy=0;fontSize=12;exitX=0.5;exitY=1;exitDx=0;exitDy=0;" parent="1" source="33" target="30" edge="1">
                    <mxGeometry relative="1" as="geometry">
                        <mxPoint x="200" y="630" as="targetPoint"/>
                        <Array as="points">
                            <mxPoint x="395" y="910"/>
                            <mxPoint x="260" y="910"/>
                            <mxPoint x="260" y="770"/>
                        </Array>
                    </mxGeometry>
                </mxCell>
                <mxCell id="42" style="edgeStyle=none;html=1;entryX=0.5;entryY=1;entryDx=0;entryDy=0;fontSize=12;" parent="1" source="33" target="40" edge="1">
                    <mxGeometry relative="1" as="geometry">
                        <Array as="points">
                            <mxPoint x="415" y="870"/>
                            <mxPoint x="615" y="870"/>
                        </Array>
                    </mxGeometry>
                </mxCell>
                <mxCell id="51" value="ParticleSwarmOptimization" style="swimlane;whiteSpace=wrap;html=1;fontSize=12;" parent="1" vertex="1">
                    <mxGeometry y="-80" width="850" height="1030" as="geometry"/>
                </mxCell>
                <mxCell id="30" value="移动" style="rounded=1;whiteSpace=wrap;html=1;fontSize=12;fillColor=#ffcd28;strokeColor=#d79b00;gradientColor=#ffa500;" parent="51" vertex="1">
                    <mxGeometry x="310" y="830" width="170" height="40" as="geometry"/>
                </mxCell>
                <mxCell id="68" style="edgeStyle=none;html=1;entryX=1;entryY=0.5;entryDx=0;entryDy=0;fontSize=28;" parent="51" source="40" target="30" edge="1">
                    <mxGeometry relative="1" as="geometry"/>
                </mxCell>
                <mxCell id="32" value="评估" style="rounded=1;whiteSpace=wrap;html=1;fontSize=12;fillColor=#ffcd28;strokeColor=#d79b00;gradientColor=#ffa500;" parent="51" vertex="1">
                    <mxGeometry x="310" y="880" width="170" height="40" as="geometry"/>
                </mxCell>
                <mxCell id="65" style="edgeStyle=none;html=1;entryX=0.5;entryY=0;entryDx=0;entryDy=0;fontSize=28;" parent="51" source="30" target="32" edge="1">
                    <mxGeometry relative="1" as="geometry"/>
                </mxCell>
                <mxCell id="9" value="IParticle" style="swimlane;whiteSpace=wrap;html=1;fillColor=#d5e8d4;gradientColor=#97d077;strokeColor=#82b366;" parent="51" vertex="1">
                    <mxGeometry x="510" y="560" width="280" height="430" as="geometry"/>
                </mxCell>
                <mxCell id="10" value="位置属性" style="rounded=1;whiteSpace=wrap;html=1;fillColor=#d5e8d4;strokeColor=#82b366;gradientColor=#97d077;" parent="9" vertex="1">
                    <mxGeometry x="15" y="115" width="120" height="60" as="geometry"/>
                </mxCell>
                <mxCell id="11" value="变化属性" style="rounded=1;whiteSpace=wrap;html=1;" parent="9" vertex="1">
                    <mxGeometry x="145" y="115" width="120" height="60" as="geometry"/>
                </mxCell>
                <mxCell id="12" value="评估属性" style="rounded=1;whiteSpace=wrap;html=1;" parent="9" vertex="1">
                    <mxGeometry x="15" y="195" width="120" height="60" as="geometry"/>
                </mxCell>
                <mxCell id="13" value="历史记录" style="rounded=1;whiteSpace=wrap;html=1;" parent="9" vertex="1">
                    <mxGeometry x="145" y="195" width="120" height="60" as="geometry"/>
                </mxCell>
                <mxCell id="40" value="个体最佳 + 全局最佳 + 现在" style="rounded=1;whiteSpace=wrap;html=1;fontSize=12;fillColor=#f8cecc;strokeColor=#b85450;gradientColor=#ea6b66;" parent="9" vertex="1">
                    <mxGeometry x="20" y="270" width="170" height="40" as="geometry"/>
                </mxCell>
                <mxCell id="70" style="edgeStyle=none;html=1;entryX=0.75;entryY=0;entryDx=0;entryDy=0;fontSize=28;" parent="9" source="31" target="10" edge="1">
                    <mxGeometry relative="1" as="geometry"/>
                </mxCell>
                <mxCell id="31" value="边界检查" style="rounded=1;whiteSpace=wrap;html=1;fontSize=12;fillColor=#d5e8d4;strokeColor=#82b366;gradientColor=#97d077;" parent="9" vertex="1">
                    <mxGeometry x="20" y="50" width="170" height="40" as="geometry"/>
                </mxCell>
                <mxCell id="19" value="粒子初始化" style="rounded=1;whiteSpace=wrap;html=1;fontStyle=1" parent="51" vertex="1">
                    <mxGeometry x="270" y="555" width="120" height="50" as="geometry"/>
                </mxCell>
                <mxCell id="4" value="IParticle" style="rounded=1;whiteSpace=wrap;html=1;fillColor=#d5e8d4;gradientColor=#97d077;strokeColor=#82b366;" parent="51" vertex="1">
                    <mxGeometry x="410" y="560" width="100" height="40" as="geometry"/>
                </mxCell>
                <mxCell id="28" value="遍历所有粒子" style="rounded=1;whiteSpace=wrap;html=1;fontSize=12;" parent="51" vertex="1">
                    <mxGeometry x="255" y="650" width="150" height="40" as="geometry"/>
                </mxCell>
                <mxCell id="6" value="指定群体中每个个体运动的下一个目标" style="rounded=1;whiteSpace=wrap;html=1;" parent="51" vertex="1">
                    <mxGeometry x="338" y="330" width="120" height="50" as="geometry"/>
                </mxCell>
                <mxCell id="7" value="指导IParticle如何移动" style="rounded=1;whiteSpace=wrap;html=1;" parent="51" vertex="1">
                    <mxGeometry x="310" y="240" width="120" height="50" as="geometry"/>
                </mxCell>
                <mxCell id="48" value="根据目标位置计算速度" style="rounded=1;whiteSpace=wrap;html=1;fontSize=12;" parent="51" vertex="1">
                    <mxGeometry x="655" y="370" width="170" height="40" as="geometry"/>
                </mxCell>
                <mxCell id="3" value="ISwarm" style="rounded=1;whiteSpace=wrap;html=1;fillColor=#ffcd28;gradientColor=#ffa500;strokeColor=#d79b00;" parent="51" vertex="1">
                    <mxGeometry x="100" y="80" width="100" height="40" as="geometry"/>
                </mxCell>
                <mxCell id="23" value="SingleObjectiveSwarm" style="rounded=1;whiteSpace=wrap;html=1;" parent="51" vertex="1">
                    <mxGeometry x="40" y="120" width="160" height="40" as="geometry"/>
                </mxCell>
                <mxCell id="27" value="决定哪些粒子需要移动" style="rounded=1;whiteSpace=wrap;html=1;fontSize=12;" parent="51" vertex="1">
                    <mxGeometry x="255" y="720" width="150" height="40" as="geometry"/>
                </mxCell>
                <mxCell id="45" value="ITopology" style="rounded=1;whiteSpace=wrap;html=1;fillColor=#dae8fc;strokeColor=#6c8ebf;gradientColor=#7ea6e0;" parent="51" vertex="1">
                    <mxGeometry x="210" y="460" width="100" height="40" as="geometry"/>
                </mxCell>
                <mxCell id="47" value="ParticlesCollection" style="swimlane;whiteSpace=wrap;html=1;fontSize=12;fillColor=#dae8fc;strokeColor=#6c8ebf;gradientColor=#7ea6e0;" parent="51" vertex="1">
                    <mxGeometry x="310" y="460" width="510" height="60" as="geometry"/>
                </mxCell>
                <mxCell id="79" value="plugin" style="rounded=1;whiteSpace=wrap;html=1;fontSize=28;fillColor=#dae8fc;gradientColor=#7ea6e0;strokeColor=#6c8ebf;" parent="47" vertex="1">
                    <mxGeometry x="28" y="25" width="432" height="35" as="geometry"/>
                </mxCell>
                <mxCell id="58" style="edgeStyle=none;html=1;entryX=0;entryY=0.5;entryDx=0;entryDy=0;fontSize=32;" parent="1" source="57" target="45" edge="1">
                    <mxGeometry relative="1" as="geometry"/>
                </mxCell>
                <mxCell id="57" value="Search Space" style="rounded=1;whiteSpace=wrap;html=1;fontSize=32;" parent="1" vertex="1">
                    <mxGeometry x="-257" y="370" width="240" height="60" as="geometry"/>
                </mxCell>
                <mxCell id="62" style="edgeStyle=none;html=1;fontSize=32;" parent="1" source="61" target="53" edge="1">
                    <mxGeometry relative="1" as="geometry"/>
                </mxCell>
                <mxCell id="61" value="Result?" style="rounded=1;whiteSpace=wrap;html=1;fontSize=32;fillColor=#f8cecc;strokeColor=#b85450;gradientColor=#ea6b66;" parent="1" vertex="1">
                    <mxGeometry x="-177" y="595" width="120" height="60" as="geometry"/>
                </mxCell>
                <mxCell id="25" value="MultipleObjectiveSwarm" style="rounded=1;whiteSpace=wrap;html=1;fillColor=#f8cecc;strokeColor=#b85450;fontSize=32;gradientColor=#ea6b66;" parent="1" vertex="1">
                    <mxGeometry x="-410" y="40" width="410" height="100" as="geometry"/>
                </mxCell>
                <mxCell id="64" style="edgeStyle=none;html=1;entryX=1;entryY=0.5;entryDx=0;entryDy=0;fontSize=28;" parent="1" source="10" target="61" edge="1">
                    <mxGeometry relative="1" as="geometry"/>
                </mxCell>
                <mxCell id="54" value="IFitness" style="whiteSpace=wrap;html=1;fontSize=32;rounded=1;" parent="1" vertex="1">
                    <mxGeometry x="100" y="790" width="120" height="60" as="geometry"/>
                </mxCell>
                <mxCell id="63" style="edgeStyle=none;html=1;fontSize=32;" parent="1" source="23" edge="1">
                    <mxGeometry relative="1" as="geometry">
                        <mxPoint x="120" y="790" as="targetPoint"/>
                        <Array as="points"/>
                    </mxGeometry>
                </mxCell>
                <mxCell id="55" value="" style="edgeStyle=none;html=1;fontSize=32;" parent="1" source="53" target="54" edge="1">
                    <mxGeometry relative="1" as="geometry">
                        <mxPoint y="820.5999999999999" as="targetPoint"/>
                    </mxGeometry>
                </mxCell>
                <mxCell id="56" style="edgeStyle=none;html=1;entryX=0;entryY=0.5;entryDx=0;entryDy=0;fontSize=32;" parent="1" source="54" target="32" edge="1">
                    <mxGeometry relative="1" as="geometry"/>
                </mxCell>
                <mxCell id="78" style="edgeStyle=none;html=1;entryX=0;entryY=0.5;entryDx=0;entryDy=0;fontSize=28;" parent="1" source="53" target="57" edge="1">
                    <mxGeometry relative="1" as="geometry">
                        <Array as="points">
                            <mxPoint x="-307" y="820"/>
                            <mxPoint x="-307" y="400"/>
                        </Array>
                    </mxGeometry>
                </mxCell>
                <mxCell id="53" value="Problem" style="rounded=1;whiteSpace=wrap;html=1;fontSize=32;" parent="1" vertex="1">
                    <mxGeometry x="-207" y="777.5" width="180" height="85" as="geometry"/>
                </mxCell>
            </root>
        </mxGraphModel>
    </diagram>
</mxfile>